<mxfile host="app.diagrams.net" agent="Mozilla/5.0 (Windows NT 10.0; Win64; x64) AppleWebKit/537.36 (KHTML, like Gecko) Chrome/130.0.0.0 Safari/537.36" version="24.8.4">
  <diagram name="Page-1" id="Ul4QLSELA3oetRPxN4gZ">
    <mxGraphModel dx="1971" dy="1743" grid="1" gridSize="10" guides="1" tooltips="1" connect="1" arrows="1" fold="1" page="1" pageScale="1" pageWidth="850" pageHeight="1100" math="0" shadow="0">
      <root>
        <mxCell id="0" />
        <mxCell id="1" parent="0" />
        <mxCell id="y7V5Y_ggKCS5LMDnVgq6-15" style="edgeStyle=orthogonalEdgeStyle;rounded=0;orthogonalLoop=1;jettySize=auto;html=1;exitX=0.5;exitY=1;exitDx=0;exitDy=0;" edge="1" parent="1" source="y7V5Y_ggKCS5LMDnVgq6-1">
          <mxGeometry relative="1" as="geometry">
            <mxPoint x="430.0588235294117" y="260" as="targetPoint" />
          </mxGeometry>
        </mxCell>
        <mxCell id="y7V5Y_ggKCS5LMDnVgq6-1" value="Frontend App" style="rounded=1;whiteSpace=wrap;html=1;" vertex="1" parent="1">
          <mxGeometry x="370" y="123" width="120" height="60" as="geometry" />
        </mxCell>
        <mxCell id="y7V5Y_ggKCS5LMDnVgq6-2" value="Server" style="rounded=1;whiteSpace=wrap;html=1;" vertex="1" parent="1">
          <mxGeometry x="370" y="-20" width="120" height="60" as="geometry" />
        </mxCell>
        <mxCell id="y7V5Y_ggKCS5LMDnVgq6-3" value="" style="endArrow=classic;startArrow=classic;html=1;rounded=0;entryX=0.5;entryY=1;entryDx=0;entryDy=0;exitX=0.5;exitY=0;exitDx=0;exitDy=0;" edge="1" parent="1" source="y7V5Y_ggKCS5LMDnVgq6-1" target="y7V5Y_ggKCS5LMDnVgq6-2">
          <mxGeometry width="50" height="50" relative="1" as="geometry">
            <mxPoint x="400" y="290" as="sourcePoint" />
            <mxPoint x="450" y="240" as="targetPoint" />
          </mxGeometry>
        </mxCell>
        <mxCell id="y7V5Y_ggKCS5LMDnVgq6-4" value="Share Information" style="text;html=1;align=center;verticalAlign=middle;resizable=0;points=[];autosize=1;strokeColor=none;fillColor=none;" vertex="1" parent="1">
          <mxGeometry x="430" y="70" width="120" height="30" as="geometry" />
        </mxCell>
        <mxCell id="y7V5Y_ggKCS5LMDnVgq6-5" value="Drivers Page" style="rounded=1;whiteSpace=wrap;html=1;" vertex="1" parent="1">
          <mxGeometry x="-70" y="330" width="120" height="60" as="geometry" />
        </mxCell>
        <mxCell id="y7V5Y_ggKCS5LMDnVgq6-6" value="Constructors Page" style="rounded=1;whiteSpace=wrap;html=1;" vertex="1" parent="1">
          <mxGeometry x="70" y="330" width="120" height="60" as="geometry" />
        </mxCell>
        <mxCell id="y7V5Y_ggKCS5LMDnVgq6-7" value="Schedule Page" style="rounded=1;whiteSpace=wrap;html=1;" vertex="1" parent="1">
          <mxGeometry x="210" y="330" width="120" height="60" as="geometry" />
        </mxCell>
        <mxCell id="y7V5Y_ggKCS5LMDnVgq6-8" value="Circuits Page" style="rounded=1;whiteSpace=wrap;html=1;" vertex="1" parent="1">
          <mxGeometry x="350" y="330" width="120" height="60" as="geometry" />
        </mxCell>
        <mxCell id="y7V5Y_ggKCS5LMDnVgq6-9" value="Drivers standings page" style="rounded=1;whiteSpace=wrap;html=1;" vertex="1" parent="1">
          <mxGeometry x="490" y="330" width="120" height="60" as="geometry" />
        </mxCell>
        <mxCell id="y7V5Y_ggKCS5LMDnVgq6-10" value="Constructos Standings Page" style="rounded=1;whiteSpace=wrap;html=1;" vertex="1" parent="1">
          <mxGeometry x="630" y="330" width="120" height="60" as="geometry" />
        </mxCell>
        <mxCell id="y7V5Y_ggKCS5LMDnVgq6-31" style="edgeStyle=orthogonalEdgeStyle;rounded=0;orthogonalLoop=1;jettySize=auto;html=1;exitX=0.5;exitY=1;exitDx=0;exitDy=0;" edge="1" parent="1" source="y7V5Y_ggKCS5LMDnVgq6-11" target="y7V5Y_ggKCS5LMDnVgq6-26">
          <mxGeometry relative="1" as="geometry" />
        </mxCell>
        <mxCell id="y7V5Y_ggKCS5LMDnVgq6-11" value="The Paddock Report (All articles)" style="rounded=1;whiteSpace=wrap;html=1;" vertex="1" parent="1">
          <mxGeometry x="770" y="330" width="120" height="60" as="geometry" />
        </mxCell>
        <mxCell id="y7V5Y_ggKCS5LMDnVgq6-12" value="Race Result Page" style="rounded=1;whiteSpace=wrap;html=1;" vertex="1" parent="1">
          <mxGeometry x="140" y="500" width="120" height="60" as="geometry" />
        </mxCell>
        <mxCell id="y7V5Y_ggKCS5LMDnVgq6-13" value="Qualifying Result Page" style="rounded=1;whiteSpace=wrap;html=1;" vertex="1" parent="1">
          <mxGeometry x="280" y="500" width="120" height="60" as="geometry" />
        </mxCell>
        <mxCell id="y7V5Y_ggKCS5LMDnVgq6-14" value="" style="endArrow=none;html=1;rounded=0;" edge="1" parent="1">
          <mxGeometry width="50" height="50" relative="1" as="geometry">
            <mxPoint x="-10" y="260" as="sourcePoint" />
            <mxPoint x="840" y="260" as="targetPoint" />
          </mxGeometry>
        </mxCell>
        <mxCell id="y7V5Y_ggKCS5LMDnVgq6-16" value="" style="endArrow=classic;html=1;rounded=0;entryX=0.5;entryY=0;entryDx=0;entryDy=0;" edge="1" parent="1" target="y7V5Y_ggKCS5LMDnVgq6-5">
          <mxGeometry width="50" height="50" relative="1" as="geometry">
            <mxPoint x="-10" y="260" as="sourcePoint" />
            <mxPoint x="550" y="250" as="targetPoint" />
          </mxGeometry>
        </mxCell>
        <mxCell id="y7V5Y_ggKCS5LMDnVgq6-17" value="" style="endArrow=classic;html=1;rounded=0;entryX=0.5;entryY=0;entryDx=0;entryDy=0;" edge="1" parent="1">
          <mxGeometry width="50" height="50" relative="1" as="geometry">
            <mxPoint x="129.82" y="260" as="sourcePoint" />
            <mxPoint x="129.82" y="330" as="targetPoint" />
          </mxGeometry>
        </mxCell>
        <mxCell id="y7V5Y_ggKCS5LMDnVgq6-18" value="" style="endArrow=classic;html=1;rounded=0;entryX=0.5;entryY=0;entryDx=0;entryDy=0;" edge="1" parent="1">
          <mxGeometry width="50" height="50" relative="1" as="geometry">
            <mxPoint x="269.82" y="260" as="sourcePoint" />
            <mxPoint x="269.82" y="330" as="targetPoint" />
          </mxGeometry>
        </mxCell>
        <mxCell id="y7V5Y_ggKCS5LMDnVgq6-19" value="" style="endArrow=classic;html=1;rounded=0;entryX=0.5;entryY=0;entryDx=0;entryDy=0;" edge="1" parent="1">
          <mxGeometry width="50" height="50" relative="1" as="geometry">
            <mxPoint x="409.82" y="260" as="sourcePoint" />
            <mxPoint x="409.82" y="330" as="targetPoint" />
          </mxGeometry>
        </mxCell>
        <mxCell id="y7V5Y_ggKCS5LMDnVgq6-20" value="" style="endArrow=classic;html=1;rounded=0;entryX=0.5;entryY=0;entryDx=0;entryDy=0;" edge="1" parent="1">
          <mxGeometry width="50" height="50" relative="1" as="geometry">
            <mxPoint x="549.82" y="260" as="sourcePoint" />
            <mxPoint x="549.82" y="330" as="targetPoint" />
          </mxGeometry>
        </mxCell>
        <mxCell id="y7V5Y_ggKCS5LMDnVgq6-21" value="" style="endArrow=classic;html=1;rounded=0;entryX=0.5;entryY=0;entryDx=0;entryDy=0;" edge="1" parent="1">
          <mxGeometry width="50" height="50" relative="1" as="geometry">
            <mxPoint x="840" y="260" as="sourcePoint" />
            <mxPoint x="840" y="330" as="targetPoint" />
          </mxGeometry>
        </mxCell>
        <mxCell id="y7V5Y_ggKCS5LMDnVgq6-22" value="" style="endArrow=none;html=1;rounded=0;" edge="1" parent="1">
          <mxGeometry width="50" height="50" relative="1" as="geometry">
            <mxPoint x="200" y="440" as="sourcePoint" />
            <mxPoint x="340" y="440" as="targetPoint" />
          </mxGeometry>
        </mxCell>
        <mxCell id="y7V5Y_ggKCS5LMDnVgq6-23" value="" style="endArrow=classic;html=1;rounded=0;" edge="1" parent="1">
          <mxGeometry width="50" height="50" relative="1" as="geometry">
            <mxPoint x="269.62" y="390" as="sourcePoint" />
            <mxPoint x="270" y="440" as="targetPoint" />
          </mxGeometry>
        </mxCell>
        <mxCell id="y7V5Y_ggKCS5LMDnVgq6-24" value="" style="endArrow=classic;html=1;rounded=0;" edge="1" parent="1">
          <mxGeometry width="50" height="50" relative="1" as="geometry">
            <mxPoint x="199.62" y="440" as="sourcePoint" />
            <mxPoint x="200" y="500" as="targetPoint" />
          </mxGeometry>
        </mxCell>
        <mxCell id="y7V5Y_ggKCS5LMDnVgq6-25" value="" style="endArrow=classic;html=1;rounded=0;" edge="1" parent="1">
          <mxGeometry width="50" height="50" relative="1" as="geometry">
            <mxPoint x="339.62" y="440" as="sourcePoint" />
            <mxPoint x="340" y="500" as="targetPoint" />
          </mxGeometry>
        </mxCell>
        <mxCell id="y7V5Y_ggKCS5LMDnVgq6-26" value="The Paddock Report (Individual article)" style="rounded=1;whiteSpace=wrap;html=1;" vertex="1" parent="1">
          <mxGeometry x="770" y="500" width="120" height="60" as="geometry" />
        </mxCell>
        <mxCell id="y7V5Y_ggKCS5LMDnVgq6-32" value="Tanstack Query" style="rounded=1;whiteSpace=wrap;html=1;" vertex="1" parent="1">
          <mxGeometry x="100" y="123" width="120" height="60" as="geometry" />
        </mxCell>
        <mxCell id="y7V5Y_ggKCS5LMDnVgq6-33" value="" style="endArrow=classic;startArrow=classic;html=1;rounded=0;exitX=1;exitY=0.5;exitDx=0;exitDy=0;entryX=0;entryY=0.5;entryDx=0;entryDy=0;" edge="1" parent="1" source="y7V5Y_ggKCS5LMDnVgq6-32" target="y7V5Y_ggKCS5LMDnVgq6-1">
          <mxGeometry width="50" height="50" relative="1" as="geometry">
            <mxPoint x="310" y="300" as="sourcePoint" />
            <mxPoint x="360" y="250" as="targetPoint" />
          </mxGeometry>
        </mxCell>
        <mxCell id="y7V5Y_ggKCS5LMDnVgq6-34" value="Helmet" style="rounded=1;whiteSpace=wrap;html=1;" vertex="1" parent="1">
          <mxGeometry x="630" y="123" width="120" height="60" as="geometry" />
        </mxCell>
        <mxCell id="y7V5Y_ggKCS5LMDnVgq6-35" value="" style="endArrow=classic;startArrow=classic;html=1;rounded=0;exitX=0;exitY=0.5;exitDx=0;exitDy=0;entryX=1;entryY=0.5;entryDx=0;entryDy=0;" edge="1" parent="1" source="y7V5Y_ggKCS5LMDnVgq6-34" target="y7V5Y_ggKCS5LMDnVgq6-1">
          <mxGeometry width="50" height="50" relative="1" as="geometry">
            <mxPoint x="310" y="300" as="sourcePoint" />
            <mxPoint x="360" y="250" as="targetPoint" />
          </mxGeometry>
        </mxCell>
        <mxCell id="y7V5Y_ggKCS5LMDnVgq6-36" value="API Caching" style="text;html=1;align=center;verticalAlign=middle;resizable=0;points=[];autosize=1;strokeColor=none;fillColor=none;" vertex="1" parent="1">
          <mxGeometry x="240" y="153" width="90" height="30" as="geometry" />
        </mxCell>
        <mxCell id="y7V5Y_ggKCS5LMDnVgq6-37" value="Security" style="text;html=1;align=center;verticalAlign=middle;resizable=0;points=[];autosize=1;strokeColor=none;fillColor=none;" vertex="1" parent="1">
          <mxGeometry x="530" y="158" width="70" height="30" as="geometry" />
        </mxCell>
      </root>
    </mxGraphModel>
  </diagram>
</mxfile>
